# xmcd
#
# Track frame offsets:
#	150
#	4863
#	27348
#	30276
#	53594
#	75732
#	80569
#	98180
#	121690
#	142983
#	161328
#	186000
#	193738
#	209466
#	237726
#	267103
#
# Disc length: 3916 seconds
#
# Revision: 1
# Processed by: cddbd v1.5PL3 Copyright (c) Steve Scherf et al.
# Submitted via: CDex 1.50Beta5
#
DISCID=c90f4a10
DTITLE=m-flo - Planet Shining
DYEAR=1900
DGENRE=Pop
TTITLE0=Intro
TTITLE1=Ten Below Blazing
TTITLE2=Announcement
TTITLE3=Planet Shining
TTITLE4=Come Back To Me
TTITLE5=Guidance
TTITLE6=Chronopsychology
TTITLE7=Hands
TTITLE8=Radio Show
TTITLE9=Saywatchugotta
TTITLE10=Just Be
TTITLE11=Line Holding
TTITLE12=Quantum Leap
TTITLE13=L．O．T．
TTITLE14=Deep Within
TTITLE15=Been So Long
EXTD=
EXTT0=
EXTT1=
EXTT2=
EXTT3=
EXTT4=
EXTT5=
EXTT6=
EXTT7=
EXTT8=
EXTT9=
EXTT10=
EXTT11=
EXTT12=
EXTT13=
EXTT14=
EXTT15=
PLAYORDER=
